<svg xmlns="http://www.w3.org/2000/svg" width="1600" height="900" viewBox="0 0 1600 900">
  <defs>
    <linearGradient id="bg" x1="0" x2="1" y1="0" y2="1">
      <stop offset="0" stop-color="#fbfbfd"/>
      <stop offset="1" stop-color="#eef3f7"/>
    </linearGradient>
    <filter id="shadow" x="-10%" y="-10%" width="120%" height="130%">
      <feDropShadow dx="0" dy="18" stdDeviation="22" flood-color="#14213d" flood-opacity="0.12"/>
    </filter>
    <marker id="arrow" markerWidth="16" markerHeight="16" refX="12" refY="8" orient="auto">
      <path d="M 3 3 L 13 8 L 3 13 z" fill="#9aa3b1"/>
    </marker>
    <style>
      text { font-family: "Hiragino Sans GB", "STHeiti", "PingFang SC", "Helvetica Neue", Arial, sans-serif; letter-spacing: 0; }
    </style>
  </defs>
  <rect width="1600" height="900" fill="url(#bg)"/>
  <circle cx="1320" cy="140" r="180" fill="#dcecff" opacity="0.45"/>
  <circle cx="220" cy="780" r="210" fill="#e9f6ef" opacity="0.55"/>
  <text x="90" y="84" text-anchor="start" font-size="24" font-weight="700" fill="#2f6df6" opacity="1"><tspan x="90" dy="0">Coding Agent 实践</tspan></text>
  <text x="90" y="142" text-anchor="start" font-size="54" font-weight="800" fill="#171717" opacity="1"><tspan x="90" dy="0">一拿到任务，先路由</tspan></text>
  <text x="92" y="190" text-anchor="start" font-size="26" font-weight="500" fill="#6f737a" opacity="1"><tspan x="92" dy="0">不要让所有任务都走同一套 AI 协作方式</tspan></text>
  
      <rect x="120" y="285" width="270" height="120" rx="30" fill="#ffffff" stroke="#dfe5ee" stroke-width="2" opacity="1"/>
      <text x="255" y="357" text-anchor="middle" font-size="34" font-weight="800" fill="#171717" opacity="1"><tspan x="255" dy="0">Coding 任务</tspan></text>
      <line x1="390" y1="345" x2="540" y2="345" stroke="#9aa3b1" stroke-width="4" stroke-linecap="round" marker-end="url(#arrow)"/>
      <rect x="540" y="255" width="260" height="180" rx="30" fill="#f7fbff" stroke="#d6e8ff" stroke-width="2" opacity="1"/>
      <text x="670" y="330" text-anchor="middle" font-size="34" font-weight="800" fill="#2f6df6" opacity="1"><tspan x="670" dy="0">重要吗？</tspan></text>
      <line x1="800" y1="300" x2="1000" y2="220" stroke="#9aa3b1" stroke-width="4" stroke-linecap="round" marker-end="url(#arrow)"/>
      <line x1="800" y1="390" x2="1000" y2="500" stroke="#9aa3b1" stroke-width="4" stroke-linecap="round" marker-end="url(#arrow)"/>
      <rect x="1000" y="142" width="390" height="150" rx="28" fill="#f0f7ff" stroke="#dbeafe" stroke-width="2" opacity="1"/>
      <text x="1034" y="205" text-anchor="start" font-size="30" font-weight="800" fill="#2f6df6" opacity="1"><tspan x="1034" dy="0">重要</tspan></text>
      <text x="1034" y="250" text-anchor="start" font-size="24" font-weight="500" fill="#6f737a" opacity="1"><tspan x="1034" dy="0">继续判断复杂度</tspan></text>
      <rect x="1000" y="440" width="390" height="150" rx="28" fill="#fff8ec" stroke="#f0dfbf" stroke-width="2" opacity="1"/>
      <text x="1034" y="503" text-anchor="start" font-size="30" font-weight="800" fill="#c77c11" opacity="1"><tspan x="1034" dy="0">不重要</tspan></text>
      <text x="1034" y="548" text-anchor="start" font-size="24" font-weight="500" fill="#6f737a" opacity="1"><tspan x="1034" dy="0">控制投入时间</tspan></text>
      <text x="174" y="692" text-anchor="start" font-size="28" font-weight="800" fill="#6f737a" opacity="1"><tspan x="174" dy="0">路由结果</tspan></text>
      <rect x="330" y="650" width="210" height="56" rx="28" fill="#2fa66a" stroke="#2fa66a" stroke-width="1" opacity="1"/>
<text x="435" y="687.1" text-anchor="middle" font-size="26" font-weight="700" fill="#fff" opacity="1"><tspan x="435" dy="0">重点项目</tspan></text>
      <rect x="570" y="650" width="210" height="56" rx="28" fill="#2f6df6" stroke="#2f6df6" stroke-width="1" opacity="1"/>
<text x="675" y="687.1" text-anchor="middle" font-size="26" font-weight="700" fill="#fff" opacity="1"><tspan x="675" dy="0">Quick Win</tspan></text>
      <rect x="810" y="650" width="210" height="56" rx="28" fill="#c77c11" stroke="#c77c11" stroke-width="1" opacity="1"/>
<text x="915" y="687.1" text-anchor="middle" font-size="26" font-weight="700" fill="#fff" opacity="1"><tspan x="915" dy="0">先拆解</tspan></text>
      <rect x="1050" y="650" width="250" height="56" rx="28" fill="#8f98a7" stroke="#8f98a7" stroke-width="1" opacity="1"/>
<text x="1175" y="687.1" text-anchor="middle" font-size="26" font-weight="700" fill="#fff" opacity="1"><tspan x="1175" dy="0">低成本实验</tspan></text>
    
</svg>