<svg xmlns="http://www.w3.org/2000/svg" width="1600" height="900" viewBox="0 0 1600 900">
  <defs>
    <linearGradient id="bg" x1="0" x2="1" y1="0" y2="1">
      <stop offset="0" stop-color="#fbfbfd"/>
      <stop offset="1" stop-color="#eef3f7"/>
    </linearGradient>
    <filter id="shadow" x="-10%" y="-10%" width="120%" height="130%">
      <feDropShadow dx="0" dy="18" stdDeviation="22" flood-color="#14213d" flood-opacity="0.12"/>
    </filter>
    <marker id="arrow" markerWidth="16" markerHeight="16" refX="12" refY="8" orient="auto">
      <path d="M 3 3 L 13 8 L 3 13 z" fill="#9aa3b1"/>
    </marker>
    <style>
      text { font-family: "Hiragino Sans GB", "STHeiti", "PingFang SC", "Helvetica Neue", Arial, sans-serif; letter-spacing: 0; }
    </style>
  </defs>
  <rect width="1600" height="900" fill="url(#bg)"/>
  <circle cx="1320" cy="140" r="180" fill="#dcecff" opacity="0.45"/>
  <circle cx="220" cy="780" r="210" fill="#e9f6ef" opacity="0.55"/>
  <text x="90" y="84" text-anchor="start" font-size="24" font-weight="700" fill="#2f6df6" opacity="1"><tspan x="90" dy="0">Coding Agent 实践</tspan></text>
  <text x="90" y="142" text-anchor="start" font-size="54" font-weight="800" fill="#171717" opacity="1"><tspan x="90" dy="0">开源兴趣项目：用机制回收质量</tspan></text>
  <text x="92" y="190" text-anchor="start" font-size="26" font-weight="500" fill="#6f737a" opacity="1"><tspan x="92" dy="0">不逐行盯代码，而是让 Review 和验证把风险点收回来</tspan></text>
  
      <rect x="100" y="390" width="260" height="120" rx="30" fill="#ffffff" stroke="#e0e6ef" stroke-width="2" opacity="1"/>
      <text x="230" y="465" text-anchor="middle" font-size="32" font-weight="800" fill="#171717" opacity="1"><tspan x="230" dy="0">Agent 实现</tspan></text>
      <line x1="360" y1="450" x2="520" y2="300" stroke="#9aa3b1" stroke-width="4" stroke-linecap="round" marker-end="url(#arrow)"/>
      <line x1="360" y1="450" x2="520" y2="450" stroke="#9aa3b1" stroke-width="4" stroke-linecap="round" marker-end="url(#arrow)"/>
      <line x1="360" y1="450" x2="520" y2="600" stroke="#9aa3b1" stroke-width="4" stroke-linecap="round" marker-end="url(#arrow)"/>
      <rect x="520" y="228" width="340" height="124" rx="26" fill="#ffffff" stroke="#e2e6ee" stroke-width="2" opacity="1"/>
<circle cx="562" cy="270" r="13" fill="#2f6df6"/>
<text x="594" y="286" text-anchor="start" font-size="34" font-weight="800" fill="#171717" opacity="1"><tspan x="594" dy="0">Code Review</tspan></text>
<text x="594" y="324" text-anchor="start" font-size="22" font-weight="500" fill="#6f737a" opacity="1"><tspan x="594" dy="0">bug / 边界问题</tspan></text>
      <rect x="520" y="378" width="340" height="124" rx="26" fill="#ffffff" stroke="#e2e6ee" stroke-width="2" opacity="1"/>
<circle cx="562" cy="420" r="13" fill="#7a5cff"/>
<text x="594" y="436" text-anchor="start" font-size="34" font-weight="800" fill="#171717" opacity="1"><tspan x="594" dy="0">架构 Review</tspan></text>
<text x="594" y="474" text-anchor="start" font-size="22" font-weight="500" fill="#6f737a" opacity="1"><tspan x="594" dy="0">模块耦合 / 演进风险</tspan></text>
      <rect x="520" y="528" width="340" height="124" rx="26" fill="#ffffff" stroke="#e2e6ee" stroke-width="2" opacity="1"/>
<circle cx="562" cy="570" r="13" fill="#2fa66a"/>
<text x="594" y="586" text-anchor="start" font-size="34" font-weight="800" fill="#171717" opacity="1"><tspan x="594" dy="0">BDD 验证</tspan></text>
<text x="594" y="624" text-anchor="start" font-size="22" font-weight="500" fill="#6f737a" opacity="1"><tspan x="594" dy="0">真实行为是否成立</tspan></text>
      <line x1="860" y1="298" x2="1040" y2="450" stroke="#9aa3b1" stroke-width="4" stroke-linecap="round" marker-end="url(#arrow)"/>
      <line x1="860" y1="450" x2="1040" y2="450" stroke="#9aa3b1" stroke-width="4" stroke-linecap="round" marker-end="url(#arrow)"/>
      <line x1="860" y1="598" x2="1040" y2="450" stroke="#9aa3b1" stroke-width="4" stroke-linecap="round" marker-end="url(#arrow)"/>
      <rect x="1040" y="370" width="370" height="160" rx="32" fill="#fff" stroke="#dfe5ee" stroke-width="2" opacity="1"/>
      <text x="1225" y="440" text-anchor="middle" font-size="34" font-weight="800" fill="#171717" opacity="1"><tspan x="1225" dy="0">人二次判断</tspan></text>
      <text x="1225" y="488" text-anchor="middle" font-size="24" font-weight="500" fill="#6f737a" opacity="1"><tspan x="1225" dy="0">只看风险点和不确定点</tspan></text>
    
</svg>