<svg xmlns="http://www.w3.org/2000/svg" width="1600" height="900" viewBox="0 0 1600 900">
  <defs>
    <linearGradient id="bg" x1="0" x2="1" y1="0" y2="1">
      <stop offset="0" stop-color="#fbfbfd"/>
      <stop offset="1" stop-color="#eef3f7"/>
    </linearGradient>
    <filter id="shadow" x="-10%" y="-10%" width="120%" height="130%">
      <feDropShadow dx="0" dy="18" stdDeviation="22" flood-color="#14213d" flood-opacity="0.12"/>
    </filter>
    <marker id="arrow" markerWidth="16" markerHeight="16" refX="12" refY="8" orient="auto">
      <path d="M 3 3 L 13 8 L 3 13 z" fill="#9aa3b1"/>
    </marker>
    <style>
      text { font-family: "Hiragino Sans GB", "STHeiti", "PingFang SC", "Helvetica Neue", Arial, sans-serif; letter-spacing: 0; }
    </style>
  </defs>
  <rect width="1600" height="900" fill="url(#bg)"/>
  <circle cx="1320" cy="140" r="180" fill="#dcecff" opacity="0.45"/>
  <circle cx="220" cy="780" r="210" fill="#e9f6ef" opacity="0.55"/>
  <text x="90" y="84" text-anchor="start" font-size="24" font-weight="700" fill="#2f6df6" opacity="1"><tspan x="90" dy="0">Coding Agent 实践</tspan></text>
  <text x="90" y="142" text-anchor="start" font-size="54" font-weight="800" fill="#171717" opacity="1"><tspan x="90" dy="0">从线性工作，到并行组织</tspan></text>
  <text x="92" y="190" text-anchor="start" font-size="26" font-weight="500" fill="#6f737a" opacity="1"><tspan x="92" dy="0">效率变化来自工作方式被重构</tspan></text>
  
      <text x="130" y="310" text-anchor="start" font-size="32" font-weight="800" fill="#6f737a" opacity="1"><tspan x="130" dy="0">过去</tspan></text>
      <rect x="130" y="350" width="180" height="56" rx="28" fill="#8f98a7" stroke="#8f98a7" stroke-width="1" opacity="1"/>
<text x="220" y="387.1" text-anchor="middle" font-size="26" font-weight="700" fill="#fff" opacity="1"><tspan x="220" dy="0">理解需求</tspan></text>
      <line x1="310" y1="378" x2="380" y2="378" stroke="#9aa3b1" stroke-width="4" stroke-linecap="round" marker-end="url(#arrow)"/>
      <rect x="390" y="350" width="160" height="56" rx="28" fill="#8f98a7" stroke="#8f98a7" stroke-width="1" opacity="1"/>
<text x="470" y="387.1" text-anchor="middle" font-size="26" font-weight="700" fill="#fff" opacity="1"><tspan x="470" dy="0">写代码</tspan></text>
      <line x1="550" y1="378" x2="620" y2="378" stroke="#9aa3b1" stroke-width="4" stroke-linecap="round" marker-end="url(#arrow)"/>
      <rect x="630" y="350" width="140" height="56" rx="28" fill="#8f98a7" stroke="#8f98a7" stroke-width="1" opacity="1"/>
<text x="700" y="387.1" text-anchor="middle" font-size="26" font-weight="700" fill="#fff" opacity="1"><tspan x="700" dy="0">自测</tspan></text>
      <line x1="770" y1="378" x2="840" y2="378" stroke="#9aa3b1" stroke-width="4" stroke-linecap="round" marker-end="url(#arrow)"/>
      <rect x="850" y="350" width="160" height="56" rx="28" fill="#8f98a7" stroke="#8f98a7" stroke-width="1" opacity="1"/>
<text x="930" y="387.1" text-anchor="middle" font-size="26" font-weight="700" fill="#fff" opacity="1"><tspan x="930" dy="0">修问题</tspan></text>
      <line x1="1010" y1="378" x2="1080" y2="378" stroke="#9aa3b1" stroke-width="4" stroke-linecap="round" marker-end="url(#arrow)"/>
      <rect x="1090" y="350" width="140" height="56" rx="28" fill="#8f98a7" stroke="#8f98a7" stroke-width="1" opacity="1"/>
<text x="1160" y="387.1" text-anchor="middle" font-size="26" font-weight="700" fill="#fff" opacity="1"><tspan x="1160" dy="0">提交</tspan></text>
      <text x="130" y="540" text-anchor="start" font-size="32" font-weight="800" fill="#2f6df6" opacity="1"><tspan x="130" dy="0">现在</tspan></text>
      <rect x="130" y="580" width="300" height="90" rx="28" fill="#fff" stroke="#dfe5ee" stroke-width="2" opacity="1"/>
      <text x="280" y="636" text-anchor="middle" font-size="27" font-weight="800" fill="#171717" opacity="1"><tspan x="280" dy="0">人理解需求和风险</tspan></text>
      <line x1="430" y1="625" x2="545" y2="625" stroke="#9aa3b1" stroke-width="4" stroke-linecap="round" marker-end="url(#arrow)"/>
      <rect x="560" y="520" width="180" height="56" rx="28" fill="#2f6df6" stroke="#2f6df6" stroke-width="1" opacity="1"/>
<text x="650" y="557.1" text-anchor="middle" font-size="26" font-weight="700" fill="#fff" opacity="1"><tspan x="650" dy="0">Agent A</tspan></text>
      <rect x="560" y="600" width="180" height="56" rx="28" fill="#00a6a6" stroke="#00a6a6" stroke-width="1" opacity="1"/>
<text x="650" y="637.1" text-anchor="middle" font-size="26" font-weight="700" fill="#fff" opacity="1"><tspan x="650" dy="0">Agent B</tspan></text>
      <rect x="560" y="680" width="180" height="56" rx="28" fill="#2fa66a" stroke="#2fa66a" stroke-width="1" opacity="1"/>
<text x="650" y="717.1" text-anchor="middle" font-size="26" font-weight="700" fill="#fff" opacity="1"><tspan x="650" dy="0">Agent C</tspan></text>
      <line x1="740" y1="548" x2="890" y2="625" stroke="#9aa3b1" stroke-width="4" stroke-linecap="round" marker-end="url(#arrow)"/>
      <line x1="740" y1="628" x2="890" y2="625" stroke="#9aa3b1" stroke-width="4" stroke-linecap="round" marker-end="url(#arrow)"/>
      <line x1="740" y1="708" x2="890" y2="625" stroke="#9aa3b1" stroke-width="4" stroke-linecap="round" marker-end="url(#arrow)"/>
      <rect x="900" y="580" width="240" height="90" rx="28" fill="#fff" stroke="#dfe5ee" stroke-width="2" opacity="1"/>
      <text x="1020" y="636" text-anchor="middle" font-size="29" font-weight="800" fill="#171717" opacity="1"><tspan x="1020" dy="0">统一 Review</tspan></text>
      <line x1="1140" y1="625" x2="1255" y2="625" stroke="#9aa3b1" stroke-width="4" stroke-linecap="round" marker-end="url(#arrow)"/>
      <rect x="1265" y="580" width="230" height="90" rx="28" fill="#fff" stroke="#dfe5ee" stroke-width="2" opacity="1"/>
      <text x="1380" y="636" text-anchor="middle" font-size="29" font-weight="800" fill="#171717" opacity="1"><tspan x="1380" dy="0">最终判断</tspan></text>
    
</svg>